<?xml version="1.0" standalone="no"?>
<!DOCTYPE svg PUBLIC "-//W3C//DTD SVG 20010904//EN"
 "http://www.w3.org/TR/2001/REC-SVG-20010904/DTD/svg10.dtd">
<svg version="1.0" xmlns="http://www.w3.org/2000/svg"
 width="3543.000000pt" height="2835.000000pt" viewBox="0 0 3543.000000 2835.000000"
 preserveAspectRatio="xMidYMid meet">

<g transform="translate(0.000000,2835.000000) scale(0.100000,-0.100000)"
fill="#000000" stroke="none">
<path d="M17694 25885 c-4 -9 -19 -15 -40 -15 -22 0 -37 -6 -40 -15 -4 -9 -19
-15 -39 -15 -18 0 -38 -7 -45 -15 -7 -8 -28 -15 -46 -15 -19 0 -34 -4 -34 -10
0 -5 -8 -10 -19 -10 -10 0 -24 -7 -31 -15 -7 -8 -27 -15 -45 -15 -20 0 -35 -6
-39 -15 -3 -9 -19 -15 -41 -15 -19 0 -35 -4 -35 -10 0 -5 -15 -10 -34 -10 -18
0 -39 -7 -46 -15 -7 -8 -27 -15 -45 -15 -20 0 -35 -6 -39 -15 -3 -9 -18 -15
-40 -15 -19 0 -38 -4 -41 -10 -3 -5 -15 -10 -26 -10 -11 0 -22 -7 -25 -15 -4
-9 -19 -15 -40 -15 -22 0 -37 -6 -40 -15 -4 -9 -19 -15 -39 -15 -19 0 -37 -4
-40 -10 -3 -5 -22 -10 -41 -10 -22 0 -37 -6 -40 -15 -4 -9 -19 -15 -40 -15
-22 0 -37 -6 -40 -15 -4 -8 -15 -15 -26 -15 -11 0 -26 -7 -34 -15 -9 -8 -29
-15 -45 -15 -16 0 -29 -4 -29 -10 0 -5 -15 -10 -34 -10 -18 0 -39 -7 -46 -15
-7 -8 -26 -15 -42 -15 -16 0 -36 -7 -44 -15 -9 -8 -29 -15 -45 -15 -16 0 -29
-4 -29 -10 0 -5 -15 -10 -34 -10 -18 0 -39 -7 -46 -15 -7 -8 -20 -15 -30 -15
-10 0 -23 -7 -30 -15 -7 -8 -25 -15 -41 -15 -15 0 -31 -4 -34 -10 -3 -5 -21
-10 -40 -10 -20 0 -35 -6 -39 -15 -3 -9 -18 -15 -39 -15 -19 0 -40 -7 -47 -15
-7 -8 -25 -15 -41 -15 -15 0 -31 -4 -34 -10 -3 -5 -22 -10 -41 -10 -22 0 -37
-6 -40 -15 -4 -8 -14 -15 -24 -15 -10 0 -23 -7 -30 -15 -7 -8 -28 -15 -46 -15
-19 0 -34 -4 -34 -10 0 -5 -15 -10 -34 -10 -18 0 -39 -7 -46 -15 -7 -8 -27
-15 -45 -15 -20 0 -35 -6 -39 -15 -3 -9 -19 -15 -41 -15 -19 0 -35 -4 -35 -10
0 -5 -11 -10 -24 -10 -13 0 -26 -7 -30 -15 -3 -9 -18 -15 -36 -15 -17 0 -38
-7 -46 -15 -9 -8 -28 -15 -44 -15 -16 0 -32 -4 -35 -10 -3 -5 -21 -10 -40 -10
-20 0 -35 -6 -39 -15 -3 -9 -18 -15 -36 -15 -17 0 -38 -7 -46 -15 -9 -8 -28
-15 -44 -15 -16 0 -32 -4 -35 -10 -3 -5 -15 -10 -26 -10 -11 0 -22 -7 -25 -15
-4 -9 -19 -15 -39 -15 -18 0 -38 -7 -45 -15 -7 -8 -28 -15 -46 -15 -19 0 -34
-4 -34 -10 0 -5 -16 -10 -35 -10 -22 0 -38 -6 -41 -15 -4 -9 -19 -15 -39 -15
-18 0 -38 -7 -45 -15 -7 -8 -28 -15 -46 -15 -19 0 -34 -4 -34 -10 0 -5 -8 -10
-19 -10 -10 0 -24 -7 -31 -15 -7 -8 -27 -15 -45 -15 -20 0 -35 -6 -39 -15 -3
-9 -19 -15 -41 -15 -19 0 -35 -4 -35 -10 0 -5 -15 -10 -34 -10 -18 0 -39 -7
-46 -15 -7 -8 -27 -15 -45 -15 -20 0 -35 -6 -39 -15 -3 -8 -14 -15 -25 -15
-11 0 -23 -4 -26 -10 -3 -5 -21 -10 -40 -10 -20 0 -35 -6 -39 -15 -3 -9 -18
-15 -39 -15 -19 0 -40 -7 -47 -15 -7 -8 -25 -15 -41 -15 -15 0 -31 -4 -34 -10
-3 -5 -21 -10 -40 -10 -20 0 -35 -6 -39 -15 -3 -9 -18 -15 -39 -15 -19 0 -40
-7 -47 -15 -7 -8 -21 -15 -31 -15 -11 0 -19 -4 -19 -10 0 -5 -16 -10 -35 -10
-22 0 -38 -6 -41 -15 -4 -9 -19 -15 -39 -15 -18 0 -38 -7 -45 -15 -7 -8 -28
-15 -46 -15 -19 0 -34 -4 -34 -10 0 -5 -16 -10 -35 -10 -22 0 -38 -6 -41 -15
-4 -9 -19 -15 -39 -15 -18 0 -38 -7 -45 -15 -7 -8 -21 -15 -31 -15 -10 0 -21
-4 -24 -10 -3 -5 -19 -10 -34 -10 -16 0 -34 -7 -41 -15 -7 -8 -27 -15 -45 -15
-20 0 -35 -6 -39 -15 -3 -9 -18 -15 -40 -15 -19 0 -38 -4 -41 -10 -3 -5 -21
-10 -40 -10 -20 0 -35 -6 -39 -15 -3 -8 -14 -15 -24 -15 -11 0 -25 -7 -32 -15
-7 -8 -25 -15 -41 -15 -15 0 -31 -4 -34 -10 -3 -5 -22 -10 -41 -10 -22 0 -37
-6 -40 -15 -4 -9 -19 -15 -39 -15 -18 0 -38 -7 -45 -15 -7 -8 -25 -15 -41 -15
-15 0 -31 -4 -34 -10 -3 -5 -22 -10 -41 -10 -22 0 -37 -6 -40 -15 -4 -8 -16
-15 -29 -15 -13 0 -25 -7 -29 -15 -3 -9 -19 -15 -41 -15 -19 0 -35 -4 -35 -10
0 -5 -15 -10 -34 -10 -18 0 -39 -7 -46 -15 -7 -8 -27 -15 -45 -15 -20 0 -35
-6 -39 -15 -3 -9 -19 -15 -41 -15 -19 0 -35 -4 -35 -10 0 -5 -15 -10 -34 -10
-18 0 -39 -7 -46 -15 -7 -8 -21 -15 -32 -15 -10 0 -21 -7 -24 -15 -4 -9 -19
-15 -39 -15 -19 0 -37 -4 -40 -10 -3 -5 -21 -10 -40 -10 -20 0 -35 -6 -39 -15
-3 -9 -19 -15 -41 -15 -22 0 -38 -6 -41 -15 -4 -9 -19 -15 -39 -15 -19 0 -37
-4 -40 -10 -3 -5 -15 -10 -26 -10 -11 0 -22 -7 -25 -15 -4 -9 -19 -15 -39 -15
-18 0 -38 -7 -45 -15 -7 -8 -28 -15 -46 -15 -19 0 -34 -4 -34 -10 0 -5 -16
-10 -35 -10 -22 0 -38 -6 -41 -15 -4 -9 -19 -15 -39 -15 -18 0 -38 -7 -45 -15
-7 -8 -28 -15 -46 -15 -19 0 -34 -4 -34 -8 0 -12 -73 -42 -102 -42 -14 0 -28
-7 -32 -15 -3 -9 -18 -15 -39 -15 -19 0 -40 -7 -47 -15 -7 -8 -25 -15 -41 -15
-15 0 -31 -4 -34 -10 -3 -5 -21 -10 -40 -10 -20 0 -35 -6 -39 -15 -3 -9 -18
-15 -39 -15 -19 0 -40 -7 -47 -15 -7 -8 -21 -15 -31 -15 -11 0 -19 -4 -19 -10
0 -5 -16 -10 -35 -10 -22 0 -38 -6 -41 -15 -4 -9 -19 -15 -39 -15 -18 0 -38
-7 -45 -15 -7 -8 -28 -15 -46 -15 -19 0 -34 -4 -34 -10 0 -5 -15 -10 -34 -10
-18 0 -39 -7 -46 -15 -7 -8 -19 -15 -27 -15 -8 0 -21 -7 -29 -15 -9 -8 -28
-15 -44 -15 -16 0 -32 -4 -35 -10 -3 -5 -21 -10 -40 -10 -20 0 -35 -6 -39 -15
-3 -9 -18 -15 -36 -15 -17 0 -38 -7 -46 -15 -9 -8 -28 -15 -44 -15 -16 0 -32
-4 -35 -10 -3 -5 -21 -10 -40 -10 -20 0 -35 -6 -39 -15 -3 -8 -14 -15 -24 -15
-11 0 -25 -7 -32 -15 -7 -8 -25 -15 -41 -15 -15 0 -31 -4 -34 -10 -3 -5 -22
-10 -41 -10 -22 0 -37 -6 -40 -15 -4 -9 -19 -15 -39 -15 -18 0 -38 -7 -45 -15
-7 -8 -25 -15 -41 -15 -15 0 -31 -4 -34 -10 -3 -5 -22 -10 -41 -10 -22 0 -37
-6 -40 -15 -4 -8 -16 -15 -29 -15 -13 0 -25 -7 -29 -15 -3 -9 -19 -15 -41 -15
-19 0 -35 -4 -35 -10 0 -5 -15 -10 -34 -10 -18 0 -39 -7 -46 -15 -7 -8 -27
-15 -45 -15 -20 0 -35 -6 -39 -15 -3 -9 -19 -15 -41 -15 -19 0 -35 -4 -35 -10
0 -5 -11 -10 -24 -10 -13 0 -26 -7 -30 -15 -3 -9 -18 -15 -39 -15 -19 0 -40
-7 -47 -15 -7 -8 -25 -15 -41 -15 -15 0 -31 -4 -34 -10 -3 -5 -21 -10 -40 -10
-20 0 -35 -6 -39 -15 -3 -9 -18 -15 -39 -15 -19 0 -40 -7 -47 -15 -7 -8 -25
-15 -41 -15 -15 0 -31 -4 -34 -10 -3 -5 -15 -10 -26 -10 -11 0 -22 -7 -25 -15
-4 -9 -19 -15 -39 -15 -18 0 -38 -7 -45 -15 -7 -8 -21 -15 -31 -15 -18 0 -19
-19 -19 -590 l0 -590 34 0 c19 0 38 5 41 10 3 6 21 10 40 10 20 0 35 6 39 15
3 9 18 15 36 15 17 0 38 7 46 15 9 8 28 15 44 15 16 0 32 5 35 10 3 6 21 10
40 10 20 0 35 6 39 15 3 8 14 15 24 15 11 0 25 7 32 15 7 8 25 15 41 15 15 0
31 5 34 10 3 6 22 10 41 10 22 0 37 6 40 15 4 9 19 15 39 15 18 0 38 7 45 15
7 8 25 15 41 15 15 0 31 5 34 10 3 6 14 10 24 10 10 0 24 7 31 15 7 8 27 15
45 15 20 0 35 6 39 15 3 9 19 15 41 15 19 0 35 5 35 10 0 6 15 10 34 10 18 0
39 7 46 15 7 8 27 15 45 15 20 0 35 6 39 15 3 9 19 15 41 15 19 0 35 5 35 10
0 6 11 10 24 10 13 0 26 7 30 15 3 9 18 15 39 15 19 0 40 7 47 15 7 8 25 15
41 15 15 0 31 5 34 10 3 6 21 10 40 10 20 0 35 6 39 15 3 9 18 15 39 15 19 0
40 7 47 15 7 8 25 15 41 15 15 0 31 5 34 10 3 6 15 10 26 10 11 0 22 7 25 15
4 9 19 15 39 15 18 0 38 7 45 15 7 8 28 15 46 15 19 0 34 5 34 10 0 6 16 10
35 10 22 0 38 6 41 15 4 9 19 15 39 15 18 0 38 7 45 15 7 8 21 15 31 15 10 0
21 5 24 10 3 6 19 10 34 10 16 0 34 7 41 15 7 8 27 15 45 15 20 0 35 6 39 15
3 9 18 15 40 15 19 0 38 5 41 10 3 6 21 10 40 10 20 0 35 6 39 15 3 9 18 15
40 15 21 0 36 6 40 15 3 8 14 15 25 15 11 0 23 5 26 10 3 6 22 10 41 10 22 0
37 6 40 15 4 9 19 15 39 15 18 0 38 7 45 15 7 8 25 15 41 15 15 0 31 5 34 10
3 6 22 10 41 10 22 0 37 6 40 15 4 9 19 15 39 15 18 0 38 7 45 15 7 8 21 15
31 15 11 0 19 5 19 10 0 6 15 10 34 10 18 0 39 7 46 15 7 8 27 15 45 15 20 0
35 6 39 15 3 9 19 15 41 15 19 0 35 5 35 10 0 6 15 10 34 10 18 0 39 7 46 15
7 8 21 15 32 15 10 0 21 7 24 15 4 9 19 15 39 15 19 0 37 5 40 10 3 6 21 10
40 10 20 0 35 6 39 15 3 9 19 15 41 15 22 0 38 6 41 15 4 9 19 15 39 15 19 0
37 5 40 10 3 6 21 10 40 10 20 0 35 6 39 15 3 8 14 15 24 15 11 0 25 7 32 15
7 8 28 15 46 15 19 0 34 5 34 10 0 6 16 10 35 10 22 0 38 6 41 15 4 9 19 15
39 15 18 0 38 7 45 15 7 8 28 15 46 15 19 0 34 5 34 10 0 6 16 10 35 10 22 0
38 6 41 15 4 8 16 15 29 15 13 0 25 7 29 15 3 9 18 15 40 15 19 0 38 5 41 10
3 6 19 10 34 10 16 0 34 7 41 15 7 8 27 15 45 15 20 0 35 6 39 15 3 9 18 15
40 15 19 0 38 5 41 10 3 6 15 10 26 10 11 0 22 7 25 15 4 9 19 15 39 15 18 0
38 7 45 15 7 8 25 15 41 15 15 0 31 5 34 10 3 6 22 10 41 10 22 0 37 6 40 15
4 9 19 15 39 15 18 0 38 7 45 15 7 8 25 15 41 15 15 0 31 5 34 10 3 6 14 10
24 10 10 0 24 7 31 15 7 8 25 15 40 15 15 0 33 7 40 15 7 8 26 15 42 15 16 0
36 7 44 15 9 8 28 15 44 15 16 0 32 5 35 10 3 6 21 10 40 10 20 0 35 6 39 15
3 8 14 15 24 15 11 0 25 7 32 15 7 8 25 15 41 15 15 0 31 5 34 10 3 6 22 10
41 10 22 0 37 6 40 15 4 9 19 15 39 15 18 0 38 7 45 15 7 8 25 15 41 15 15 0
31 5 34 10 3 6 22 10 41 10 22 0 37 6 40 15 4 8 16 15 29 15 13 0 25 7 29 15
3 9 19 15 41 15 19 0 35 5 35 10 0 6 15 10 34 10 18 0 39 7 46 15 7 8 27 15
45 15 20 0 35 6 39 15 3 9 19 15 41 15 19 0 35 5 35 10 0 6 15 10 34 10 18 0
39 7 46 15 7 8 19 15 27 15 8 0 21 7 29 15 9 8 28 15 44 15 16 0 32 5 35 10 3
6 21 10 40 10 20 0 35 6 39 15 3 9 18 15 39 15 19 0 40 7 47 15 7 8 25 15 41
15 15 0 31 5 34 10 3 6 15 10 26 10 11 0 22 7 25 15 4 9 19 15 39 15 18 0 38
7 45 15 7 8 28 15 46 15 19 0 34 5 34 10 0 6 16 10 35 10 22 0 38 6 41 15 4 9
19 15 39 15 18 0 38 7 45 15 7 8 28 15 46 15 19 0 34 5 34 10 0 6 8 10 19 10
10 0 24 7 31 15 7 8 27 15 45 15 20 0 35 6 39 15 3 9 19 15 41 15 19 0 35 5
35 10 0 6 15 10 34 10 18 0 39 7 46 15 7 8 27 15 45 15 20 0 35 6 39 15 3 9
19 15 41 15 19 0 35 5 35 10 0 6 11 10 24 10 13 0 26 7 30 15 3 9 18 15 39 15
19 0 40 7 47 15 7 8 25 15 41 15 15 0 31 5 34 10 3 6 22 10 41 10 22 0 37 6
40 15 4 9 19 15 39 15 18 0 38 7 45 15 7 8 21 15 31 15 11 0 19 5 19 10 0 6
16 10 35 10 22 0 38 6 41 15 4 9 19 15 39 15 18 0 38 7 45 15 7 8 28 15 46 15
19 0 34 5 34 10 0 6 15 10 34 10 18 0 39 7 46 15 7 8 27 15 45 15 20 0 35 6
39 15 3 8 14 15 25 15 11 0 23 5 26 10 3 6 21 10 40 10 20 0 35 6 39 15 3 9
18 15 40 15 21 0 36 6 40 15 3 9 18 15 40 15 19 0 38 5 41 10 3 6 21 10 40 10
20 0 35 6 39 15 3 9 19 15 41 15 22 0 38 6 41 15 4 8 14 15 24 15 11 0 22 5
25 10 3 6 22 10 41 10 22 0 37 6 40 15 4 9 19 15 39 15 18 0 38 7 45 15 7 8
28 15 46 15 19 0 34 5 34 10 0 6 16 10 35 10 22 0 38 6 41 15 4 8 16 15 29 15
13 0 25 7 29 15 3 9 19 15 41 15 19 0 35 5 35 10 0 6 20 10 45 10 25 0 45 -4
45 -10 0 -5 16 -10 35 -10 22 0 38 -6 41 -15 4 -9 19 -15 39 -15 18 0 38 -7
45 -15 7 -8 28 -15 46 -15 19 0 34 -4 34 -10 0 -5 16 -10 35 -10 22 0 38 -6
41 -15 4 -9 19 -15 39 -15 18 0 38 -7 45 -15 7 -8 21 -15 31 -15 10 0 21 -4
24 -10 3 -5 19 -10 34 -10 16 0 34 -7 41 -15 7 -8 27 -15 45 -15 20 0 35 -6
39 -15 3 -9 18 -15 40 -15 19 0 38 -4 41 -10 3 -5 19 -10 34 -10 16 0 34 -7
41 -15 7 -8 27 -15 45 -15 20 0 35 -6 39 -15 3 -8 14 -15 25 -15 11 0 23 -4
26 -10 3 -5 22 -10 41 -10 22 0 37 -6 40 -15 4 -9 19 -15 39 -15 18 0 38 -7
45 -15 7 -8 25 -15 41 -15 15 0 31 -4 34 -10 3 -5 22 -10 41 -10 22 0 37 -6
40 -15 4 -8 16 -15 29 -15 13 0 25 -7 29 -15 3 -9 19 -15 41 -15 19 0 35 -4
35 -10 0 -5 15 -10 34 -10 18 0 39 -7 46 -15 7 -8 27 -15 45 -15 20 0 35 -6
39 -15 3 -9 19 -15 41 -15 19 0 35 -4 35 -10 0 -5 15 -10 34 -10 18 0 39 -7
46 -15 7 -8 21 -15 32 -15 10 0 21 -7 24 -15 4 -9 19 -15 39 -15 19 0 37 -4
40 -10 3 -5 19 -10 34 -10 16 0 34 -7 41 -15 7 -8 28 -15 47 -15 21 0 36 -6
39 -15 4 -9 19 -15 39 -15 19 0 37 -4 40 -10 3 -5 19 -10 34 -10 16 0 34 -7
41 -15 7 -8 20 -15 30 -15 10 0 23 -7 30 -15 7 -8 28 -15 46 -15 19 0 34 -4
34 -10 0 -5 16 -10 35 -10 22 0 38 -6 41 -15 4 -9 19 -15 39 -15 18 0 38 -7
45 -15 7 -8 28 -15 46 -15 19 0 34 -4 34 -10 0 -5 8 -10 19 -10 10 0 24 -7 31
-15 7 -8 27 -15 45 -15 20 0 35 -6 39 -15 3 -9 18 -15 40 -15 19 0 38 -4 41
-10 3 -5 19 -10 34 -10 16 0 34 -7 41 -15 7 -8 27 -15 45 -15 20 0 35 -6 39
-15 3 -8 18 -15 32 -15 31 0 104 -30 104 -42 0 -4 16 -8 35 -8 22 0 38 -6 41
-15 4 -9 19 -15 39 -15 19 0 37 -4 40 -10 3 -5 19 -10 35 -10 16 0 35 -7 44
-15 8 -8 29 -15 46 -15 18 0 33 -6 36 -15 4 -9 19 -15 39 -15 19 0 37 -4 40
-10 3 -5 15 -10 26 -10 11 0 22 -7 25 -15 4 -9 19 -15 39 -15 18 0 38 -7 45
-15 7 -8 28 -15 46 -15 19 0 34 -4 34 -10 0 -5 15 -10 34 -10 18 0 39 -7 46
-15 7 -8 25 -15 40 -15 15 0 33 -7 40 -15 7 -8 21 -15 31 -15 10 0 21 -4 24
-10 3 -5 19 -10 34 -10 16 0 34 -7 41 -15 7 -8 28 -15 47 -15 21 0 36 -6 39
-15 4 -9 19 -15 39 -15 19 0 37 -4 40 -10 3 -5 19 -10 34 -10 16 0 34 -7 41
-15 7 -8 28 -15 47 -15 21 0 36 -6 39 -15 4 -8 16 -15 29 -15 13 0 25 -7 29
-15 3 -9 19 -15 41 -15 19 0 35 -4 35 -10 0 -5 15 -10 34 -10 18 0 39 -7 46
-15 7 -8 27 -15 45 -15 20 0 35 -6 39 -15 3 -9 19 -15 41 -15 19 0 35 -4 35
-10 0 -5 15 -10 34 -10 18 0 39 -7 46 -15 7 -8 20 -15 30 -15 10 0 20 -7 24
-15 3 -9 18 -15 40 -15 19 0 38 -4 41 -10 3 -5 21 -10 40 -10 20 0 35 -6 39
-15 3 -9 19 -15 41 -15 22 0 38 -6 41 -15 4 -9 19 -15 39 -15 19 0 37 -4 40
-10 3 -5 15 -10 26 -10 11 0 22 -7 25 -15 4 -9 19 -15 39 -15 18 0 38 -7 45
-15 7 -8 28 -15 46 -15 19 0 34 -4 34 -10 0 -5 16 -10 35 -10 22 0 38 -6 41
-15 4 -9 19 -15 39 -15 18 0 38 -7 45 -15 7 -8 28 -15 46 -15 19 0 34 -4 34
-10 0 -5 8 -10 19 -10 10 0 24 -7 31 -15 7 -8 27 -15 45 -15 20 0 35 -6 39
-15 3 -9 19 -15 41 -15 19 0 35 -4 35 -10 0 -5 15 -10 34 -10 18 0 39 -7 46
-15 7 -8 27 -15 45 -15 20 0 35 -6 39 -15 3 -9 19 -15 41 -15 19 0 35 -4 35
-10 0 -5 11 -10 24 -10 13 0 26 -7 30 -15 3 -9 19 -15 41 -15 22 0 38 -6 41
-15 4 -9 19 -15 39 -15 19 0 37 -4 40 -10 3 -5 22 -10 41 -10 22 0 37 -6 40
-15 4 -9 19 -15 40 -15 22 0 37 -6 40 -15 4 -8 17 -15 30 -15 13 0 24 -4 24
-10 0 -5 16 -10 35 -10 22 0 38 -6 41 -15 4 -9 19 -15 39 -15 18 0 38 -7 45
-15 7 -8 28 -15 46 -15 19 0 34 -4 34 -10 0 -5 15 -10 34 -10 18 0 39 -7 46
-15 7 -8 25 -15 40 -15 15 0 33 -7 40 -15 7 -8 21 -15 31 -15 10 0 21 -4 24
-10 3 -5 19 -10 34 -10 16 0 34 -7 41 -15 7 -8 27 -15 45 -15 20 0 35 -6 39
-15 3 -9 18 -15 40 -15 19 0 38 -4 41 -10 3 -5 19 -10 34 -10 16 0 34 -7 41
-15 7 -8 27 -15 45 -15 20 0 35 -6 39 -15 3 -8 14 -15 25 -15 11 0 23 -4 26
-10 3 -5 22 -10 41 -10 22 0 37 -6 40 -15 4 -9 19 -15 39 -15 18 0 38 -7 45
-15 7 -8 28 -15 46 -15 19 0 34 -4 34 -10 0 -5 16 -10 35 -10 22 0 38 -6 41
-15 4 -8 16 -15 29 -15 13 0 25 -7 29 -15 3 -9 19 -15 41 -15 19 0 35 -4 35
-10 0 -5 15 -10 34 -10 18 0 39 -7 46 -15 7 -8 27 -15 45 -15 20 0 35 -6 39
-15 3 -9 19 -15 41 -15 19 0 35 -4 35 -10 0 -5 15 -10 34 -10 18 0 39 -7 46
-15 7 -8 21 -15 32 -15 10 0 21 -7 24 -15 4 -9 19 -15 39 -15 19 0 37 -4 40
-10 3 -5 19 -10 34 -10 16 0 34 -7 41 -15 7 -8 28 -15 47 -15 21 0 36 -6 39
-15 4 -9 19 -15 39 -15 19 0 37 -4 40 -10 3 -5 19 -10 35 -10 16 0 35 -7 44
-15 8 -8 21 -15 29 -15 8 0 20 -7 27 -15 7 -8 28 -15 46 -15 19 0 34 -4 34
-10 0 -5 16 -10 35 -10 22 0 38 -6 41 -15 4 -9 19 -15 39 -15 18 0 38 -7 45
-15 7 -8 28 -15 46 -15 19 0 34 -4 34 -10 0 -5 8 -10 19 -10 10 0 24 -7 31
-15 7 -8 27 -15 45 -15 20 0 35 -6 39 -15 3 -9 18 -15 40 -15 19 0 38 -4 41
-10 3 -5 19 -10 34 -10 16 0 34 -7 41 -15 7 -8 27 -15 45 -15 20 0 35 -6 39
-15 3 -9 18 -15 40 -15 19 0 38 -4 41 -10 3 -5 22 -10 41 -10 l34 0 0 590 c0
571 -1 590 -19 590 -10 0 -24 7 -31 15 -7 8 -28 15 -47 15 -21 0 -36 6 -39 15
-4 9 -19 15 -39 15 -19 0 -37 5 -40 10 -3 6 -15 10 -26 10 -11 0 -22 7 -25 15
-4 9 -19 15 -39 15 -18 0 -38 7 -45 15 -7 8 -28 15 -46 15 -19 0 -34 5 -34 10
0 6 -16 10 -35 10 -22 0 -38 6 -41 15 -4 9 -19 15 -39 15 -18 0 -38 7 -45 15
-7 8 -28 15 -46 15 -19 0 -34 5 -34 10 0 6 -8 10 -19 10 -10 0 -24 7 -31 15
-7 8 -27 15 -45 15 -20 0 -35 6 -39 15 -3 9 -18 15 -40 15 -19 0 -38 5 -41 10
-3 6 -19 10 -34 10 -16 0 -34 7 -41 15 -7 8 -27 15 -45 15 -20 0 -35 6 -39 15
-3 8 -18 15 -32 15 -31 0 -104 30 -104 42 0 4 -16 8 -35 8 -22 0 -38 6 -41 15
-4 9 -19 15 -39 15 -19 0 -37 5 -40 10 -3 6 -19 10 -35 10 -16 0 -35 7 -44 15
-8 8 -29 15 -46 15 -18 0 -33 6 -36 15 -4 8 -17 15 -30 15 -13 0 -24 5 -24 10
0 6 -16 10 -35 10 -22 0 -38 6 -41 15 -4 9 -19 15 -39 15 -18 0 -38 7 -45 15
-7 8 -28 15 -46 15 -19 0 -34 5 -34 10 0 6 -15 10 -34 10 -18 0 -39 7 -46 15
-7 8 -25 15 -40 15 -15 0 -33 7 -40 15 -7 8 -21 15 -31 15 -10 0 -21 5 -24 10
-3 6 -19 10 -34 10 -16 0 -34 7 -41 15 -7 8 -28 15 -47 15 -21 0 -36 6 -39 15
-4 9 -19 15 -39 15 -19 0 -37 5 -40 10 -3 6 -19 10 -34 10 -16 0 -34 7 -41 15
-7 8 -28 15 -47 15 -21 0 -36 6 -39 15 -4 8 -17 15 -30 15 -13 0 -24 5 -24 10
0 6 -13 10 -29 10 -16 0 -36 7 -45 15 -8 8 -28 15 -44 15 -16 0 -35 7 -42 15
-7 8 -28 15 -46 15 -19 0 -34 5 -34 10 0 6 -13 10 -29 10 -16 0 -36 7 -45 15
-8 8 -23 15 -34 15 -11 0 -22 7 -26 15 -3 9 -18 15 -40 15 -21 0 -36 6 -40 15
-3 9 -18 15 -40 15 -19 0 -38 5 -41 10 -3 6 -21 10 -40 10 -20 0 -35 6 -39 15
-3 9 -19 15 -41 15 -22 0 -38 6 -41 15 -4 9 -19 15 -39 15 -19 0 -37 5 -40 10
-3 6 -15 10 -26 10 -11 0 -22 7 -25 15 -4 9 -19 15 -39 15 -18 0 -38 7 -45 15
-7 8 -28 15 -46 15 -19 0 -34 5 -34 10 0 6 -16 10 -35 10 -22 0 -38 6 -41 15
-4 9 -19 15 -39 15 -18 0 -38 7 -45 15 -7 8 -28 15 -46 15 -19 0 -34 5 -34 10
0 6 -8 10 -19 10 -10 0 -24 7 -31 15 -7 8 -27 15 -45 15 -20 0 -35 6 -39 15
-3 9 -19 15 -41 15 -19 0 -35 5 -35 10 0 6 -15 10 -34 10 -18 0 -39 7 -46 15
-7 8 -27 15 -45 15 -20 0 -35 6 -39 15 -3 8 -14 15 -25 15 -11 0 -23 5 -26 10
-3 6 -21 10 -40 10 -20 0 -35 6 -39 15 -3 9 -19 15 -41 15 -22 0 -38 6 -41 15
-4 9 -19 15 -39 15 -19 0 -37 5 -40 10 -3 6 -22 10 -41 10 -22 0 -37 6 -40 15
-4 9 -19 15 -40 15 -22 0 -37 6 -40 15 -4 8 -17 15 -30 15 -13 0 -24 5 -24 10
0 6 -16 10 -35 10 -22 0 -38 6 -41 15 -4 9 -19 15 -39 15 -18 0 -38 7 -45 15
-7 8 -28 15 -46 15 -19 0 -34 5 -34 10 0 6 -15 10 -34 10 -18 0 -39 7 -46 15
-7 8 -20 15 -30 15 -10 0 -20 7 -24 15 -3 9 -18 15 -40 15 -19 0 -38 5 -41 10
-3 6 -19 10 -34 10 -16 0 -34 7 -41 15 -7 8 -27 15 -45 15 -20 0 -35 6 -39 15
-3 9 -18 15 -40 15 -19 0 -38 5 -41 10 -3 6 -19 10 -34 10 -16 0 -34 7 -41 15
-7 8 -20 15 -30 15 -10 0 -23 7 -30 15 -7 8 -28 15 -46 15 -19 0 -34 5 -34 10
0 6 -16 10 -35 10 -22 0 -38 6 -41 15 -4 9 -19 15 -39 15 -18 0 -38 7 -45 15
-7 8 -28 15 -46 15 -19 0 -34 5 -34 10 0 6 -16 10 -35 10 -22 0 -38 6 -41 15
-4 8 -16 15 -29 15 -13 0 -25 7 -29 15 -3 9 -19 15 -41 15 -19 0 -35 5 -35 10
0 6 -15 10 -34 10 -18 0 -39 7 -46 15 -7 8 -27 15 -45 15 -20 0 -35 6 -39 15
-3 9 -19 15 -41 15 -19 0 -35 5 -35 10 0 6 -8 10 -19 10 -10 0 -24 7 -31 15
-7 8 -28 15 -47 15 -21 0 -36 6 -39 15 -4 9 -19 15 -39 15 -19 0 -37 5 -40 10
-3 6 -19 10 -34 10 -16 0 -34 7 -41 15 -7 8 -28 15 -47 15 -21 0 -36 6 -39 15
-4 9 -19 15 -39 15 -19 0 -37 5 -40 10 -3 6 -15 10 -26 10 -11 0 -22 7 -25 15
-4 9 -19 15 -39 15 -18 0 -38 7 -45 15 -7 8 -28 15 -46 15 -19 0 -34 5 -34 10
0 6 -16 10 -35 10 -22 0 -38 6 -41 15 -4 9 -19 15 -39 15 -18 0 -38 7 -45 15
-7 8 -28 15 -46 15 -19 0 -34 5 -34 10 0 6 -8 10 -19 10 -10 0 -24 7 -31 15
-7 8 -27 15 -45 15 -20 0 -35 6 -39 15 -3 9 -18 15 -40 15 -19 0 -38 5 -41 10
-3 6 -19 10 -34 10 -16 0 -34 7 -41 15 -7 8 -27 15 -45 15 -20 0 -35 6 -39 15
-3 8 -14 15 -25 15 -11 0 -23 5 -26 10 -3 6 -19 10 -35 10 -16 0 -35 7 -44 15
-8 8 -29 15 -46 15 -18 0 -33 6 -36 15 -4 9 -19 15 -39 15 -19 0 -37 5 -40 10
-3 6 -19 10 -35 10 -16 0 -35 7 -44 15 -8 8 -29 15 -46 15 -18 0 -33 6 -36 15
-4 8 -17 15 -30 15 -13 0 -24 5 -24 10 0 6 -15 10 -34 10 -18 0 -39 7 -46 15
-7 8 -25 15 -40 15 -15 0 -33 7 -40 15 -7 8 -28 15 -46 15 -19 0 -34 5 -34 10
0 6 -15 10 -34 10 -18 0 -39 7 -46 15 -7 8 -27 15 -45 15 -20 0 -35 6 -39 15
-3 8 -14 15 -24 15 -11 0 -25 7 -32 15 -7 8 -25 15 -41 15 -15 0 -31 5 -34 10
-3 6 -22 10 -41 10 -22 0 -37 6 -40 15 -4 9 -19 15 -39 15 -18 0 -38 7 -45 15
-7 8 -25 15 -41 15 -15 0 -31 5 -34 10 -3 6 -14 10 -24 10 -10 0 -24 7 -31 15
-7 8 -27 15 -45 15 -20 0 -35 6 -39 15 -3 9 -19 15 -41 15 -19 0 -35 5 -35 10
0 6 -15 10 -34 10 -18 0 -39 7 -46 15 -7 8 -27 15 -45 15 -20 0 -35 6 -39 15
-3 9 -19 15 -41 15 -19 0 -35 5 -35 10 0 6 -11 10 -24 10 -13 0 -26 7 -30 15
-3 9 -19 15 -41 15 -22 0 -38 6 -41 15 -4 9 -19 15 -40 15 -22 0 -37 6 -40 15
-5 11 -23 15 -75 15 -53 0 -71 -4 -75 -15z"/>
<path d="M9440 20747 c0 -6 249 -261 553 -565 l552 -552 7224 0 7225 0 553
553 c304 303 553 558 553 565 0 9 -1673 12 -8330 12 -6669 0 -8330 -2 -8330
-13z"/>
<path d="M10540 18545 c0 -3 0 -1628 0 -3612 l0 -3608 565 -3 565 -2 0 3615 0
3615 -565 0 c-311 0 -565 -2 -565 -5z"/>
<path d="M12757 18543 c-4 -3 -7 -1630 -7 -3615 l0 -3608 570 0 570 0 -2 3613
-3 3612 -561 3 c-308 1 -564 -1 -567 -5z"/>
<path d="M14970 14935 l0 -3615 568 2 567 3 0 3610 0 3610 -567 3 -568 2 0
-3615z"/>
<path d="M17215 18538 c-3 -7 -4 -1633 -3 -3613 l3 -3600 553 -3 552 -2 0
3615 0 3615 -550 0 c-431 0 -552 -3 -555 -12z"/>
<path d="M19437 18543 c-4 -3 -7 -1630 -7 -3615 l0 -3608 555 0 555 0 0 3615
0 3615 -548 0 c-302 0 -552 -3 -555 -7z"/>
<path d="M21650 14935 l0 -3615 555 0 555 0 -2 3613 -3 3612 -552 3 -553 2 0
-3615z"/>
<path d="M23870 18543 c0 -5 0 -1630 0 -3613 l0 -3605 565 -3 565 -2 0 3615 0
3615 -565 0 c-311 0 -565 -3 -565 -7z"/>
<path d="M9410 9645 l0 -565 8355 0 8355 0 0 565 0 565 -8355 0 -8355 0 0
-565z"/>
<path d="M8290 7420 l0 -570 9480 0 9480 0 0 570 0 570 -9480 0 -9480 0 0
-570z"/>
<path d="M22606 5200 c-478 -55 -796 -274 -906 -625 -31 -97 -38 -271 -16
-384 30 -160 113 -291 249 -395 139 -105 309 -169 723 -271 381 -94 489 -137
564 -222 112 -128 49 -310 -133 -387 -113 -47 -382 -65 -562 -37 -227 35 -460
119 -628 227 l-68 44 -31 -67 c-17 -38 -66 -145 -108 -240 l-78 -172 53 -34
c163 -109 404 -197 680 -249 105 -20 153 -23 380 -23 213 0 278 3 360 19 179
33 360 104 484 189 74 50 185 167 229 242 87 147 123 319 103 489 -19 166 -72
279 -179 384 -153 152 -306 216 -812 342 -438 109 -540 154 -591 265 -36 78
-17 189 46 262 40 47 126 95 215 119 100 28 390 26 527 -4 131 -28 252 -71
381 -134 57 -28 105 -49 106 -47 2 2 39 94 84 204 44 110 88 217 96 237 l16
36 -98 50 c-158 81 -334 136 -540 168 -117 18 -436 26 -546 14z"/>
<path d="M4840 4311 c0 -531 4 -879 10 -928 41 -303 141 -524 316 -700 146
-146 328 -240 569 -294 117 -27 439 -37 582 -19 287 36 511 138 689 315 167
166 263 367 311 650 14 87 17 215 20 963 l4 862 -315 0 -316 0 0 -797 c0 -951
-4 -998 -87 -1173 -42 -87 -129 -180 -210 -223 -170 -91 -475 -91 -646 0 -119
63 -213 193 -256 353 -38 140 -41 222 -41 1042 l0 798 -315 0 -315 0 0 -849z"/>
<path d="M8130 3780 l0 -1380 315 0 315 0 0 841 0 840 690 -840 691 -841 259
0 260 0 0 1380 0 1380 -315 0 -315 0 -2 -834 -3 -835 -683 835 -684 834 -264
0 -264 0 0 -1380z"/>
<path d="M11480 3780 l0 -1380 320 0 320 0 0 1380 0 1380 -320 0 -320 0 0
-1380z"/>
<path d="M12567 5143 c4 -10 271 -630 594 -1378 l587 -1360 314 -3 315 -2 594
1371 c327 755 596 1376 597 1381 2 4 -139 7 -313 6 l-317 -3 -422 -977 c-232
-538 -425 -980 -427 -983 -3 -2 -194 439 -424 980 l-420 985 -342 0 c-322 0
-342 -1 -336 -17z"/>
<path d="M15960 3780 l0 -1380 1070 0 1070 0 0 255 0 255 -755 0 -755 0 2 323
3 322 638 3 637 2 0 245 0 245 -640 0 -640 0 0 300 0 300 725 0 725 0 0 255 0
255 -1040 0 -1040 0 0 -1380z"/>
<path d="M18770 3780 l0 -1380 320 0 320 0 0 385 0 385 294 0 295 0 266 -385
267 -385 339 0 c270 0 339 3 333 13 -4 6 -143 205 -307 442 -228 326 -297 431
-286 437 157 92 204 124 266 182 126 117 209 255 255 421 18 68 22 107 22 265
1 208 -14 286 -80 428 -61 133 -183 277 -307 361 -140 95 -369 175 -572 200
-57 7 -335 11 -757 11 l-668 0 0 -1380z m1381 842 c246 -66 369 -222 369 -466
-1 -218 -115 -373 -328 -444 -76 -26 -81 -26 -429 -30 l-353 -4 0 487 0 487
333 -5 c293 -4 341 -7 408 -25z"/>
<path d="M24510 3780 l0 -1380 320 0 320 0 0 1380 0 1380 -320 0 -320 0 0
-1380z"/>
<path d="M25650 4905 l0 -255 440 0 440 0 0 -1125 0 -1125 320 0 320 0 0 1125
0 1125 440 0 440 0 0 255 0 255 -1200 0 -1200 0 0 -255z"/>
<path d="M28665 4271 l535 -889 0 -491 0 -491 315 0 315 0 0 488 0 487 535
890 536 890 -308 3 c-251 2 -310 0 -318 -11 -5 -8 -172 -283 -370 -611 -336
-559 -360 -596 -375 -579 -8 11 -175 286 -370 611 l-355 592 -337 0 -338 0
535 -889z"/>
</g>
</svg>
